<svg xmlns="http://www.w3.org/2000/svg" viewBox="0 0 720 189" width="720" height="189">
	<style>
		tspan { white-space:pre }
		.shp0 { fill: #000000 } 
		.shp1 { fill: #4285f4 } 
	</style>
	<path id="Layer" fill-rule="evenodd" class="shp0" d="M145.4 108.7L130 108.7L130 96.9C121.8 104.2 111 108.7 99.2 108.7C73.7 108.7 53 88 53 62.5C53 37 73.7 16.3 99.2 16.3C124.7 16.3 145.4 37 145.4 62.5L145.4 108.7ZM130 62.5C130 45.5 116.2 31.7 99.2 31.7C82.2 31.7 68.4 45.5 68.4 62.5C68.4 79.5 82.2 93.3 99.2 93.3C116.2 93.3 130 79.5 130 62.5Z" />
	<path id="Layer" fill-rule="evenodd" class="shp0" d="M302.9 16.3L302.9 31.7L291.1 31.7C298.4 39.9 302.9 50.7 302.9 62.5C302.9 88 282.2 108.7 256.7 108.7C231.2 108.7 210.5 88 210.5 62.5C210.5 37 231.2 16.3 256.7 16.3L302.9 16.3ZM256.7 31.7C239.7 31.7 225.9 45.5 225.9 62.5C225.9 79.5 239.7 93.3 256.7 93.3C273.7 93.3 287.5 79.5 287.5 62.5C287.5 45.5 273.7 31.7 256.7 31.7Z" />
	<path id="Layer" fill-rule="evenodd" class="shp1" d="M657 108.7L641.6 108.7L641.6 96.9C633.4 104.2 622.6 108.7 610.8 108.7C585.3 108.7 564.6 88 564.6 62.5C564.6 37 585.3 16.3 610.8 16.3C636.3 16.3 657 37 657 62.5L657 108.7ZM641.6 62.5C641.6 45.5 627.8 31.7 610.8 31.7C593.8 31.7 580 45.5 580 62.5C580 79.5 593.8 93.3 610.8 93.3C627.8 93.3 641.6 79.5 641.6 62.5Z" />
	<path id="Layer" class="shp0" d="M210.6 108.7C212.2 132.7 232.2 151.7 256.7 151.7C281.2 151.7 301.1 132.7 302.8 108.7L287.4 108.7C285.8 124.2 272.7 136.3 256.8 136.3C240.9 136.3 227.8 124.2 226.2 108.7L210.6 108.7Z" />
	<path id="Layer" fill-rule="evenodd" class="shp0" d="M332.2 70.6C335.8 83.7 347.7 93.3 361.9 93.3C372.5 93.3 382.5 87.7 388.1 78.7L400.7 87.6C392.5 100.3 378.2 108.7 361.9 108.7C336.4 108.7 315.7 88 315.7 62.5C315.7 37 336.4 16.3 361.9 16.3C387.4 16.3 408.1 37 408.1 62.5C408.1 65.3 407.9 68 407.4 70.6L332.2 70.6ZM391.9 55.2C388.6 41.7 376.4 31.7 362 31.7C347.5 31.7 335.3 41.7 332.1 55.2L391.9 55.2Z" />
	<path id="Layer" class="shp1" d="M558.2 37.4C550 24.7 535.7 16.3 519.4 16.3C493.9 16.3 473.2 37 473.2 62.5C473.2 88 493.9 108.7 519.4 108.7C535.6 108.7 549.9 100.3 558.2 87.6L545.6 78.7C540 87.7 530 93.3 519.4 93.3C502.4 93.3 488.6 79.5 488.6 62.5C488.6 45.5 502.4 31.7 519.4 31.7C530.4 31.7 540.2 37.5 545.6 46.3L558.2 37.4Z" />
	<path id="Layer" class="shp1" d="M669.6 0.8L685 0.8L685 108.6L669.6 108.6L669.6 0.8Z" />
	<path id="Layer" class="shp1" d="M697.8 0.8L713.2 0.8L713.2 108.6L697.8 108.6L697.8 0.8Z" />
	<path id="Layer" class="shp0" d="M158.2 71.5L158.2 108.7L173.6 108.7L173.6 71.5L173.6 62.5C173.6 45.5 187.4 31.7 204.4 31.7L204.4 16.3C178.9 16.3 158.2 37 158.2 62.5L158.2 71.5Z" />
	<path id="Layer" class="shp0" d="M23.7 31.7L46.8 31.7L46.8 16.3L23.7 16.3L16 16.3L16 0.8L0.7 0.8L0.7 56.8L0.7 62.5C0.7 88 21.4 108.7 46.9 108.7L46.9 93.3C29.9 93.3 16.1 79.5 16.1 62.5L16.1 56.8L16.1 31.7L23.7 31.7L23.7 31.7Z" />
	<path id="Layer" class="shp0" d="M443.9 31.7L467 31.7L467 16.3L443.9 16.3L436.2 16.3L436.2 0.8L420.8 0.8L420.8 56.8L420.8 62.5C420.8 88 441.5 108.7 467 108.7L467 93.3C450 93.3 436.2 79.5 436.2 62.5L436.2 56.8L436.2 31.7L443.9 31.7L443.9 31.7Z" />
	<path id="Layer" class="shp0" d="M482 179.8C476.8 179.8 473.4 176.8 473.2 172.9L475.9 172.9C476.1 175.1 477.7 177.7 481.9 177.7C485.5 177.7 487.6 175.6 487.6 172.9C487.6 165.2 473.3 170.1 473.3 160.3C473.3 156.3 476.6 153.4 481.6 153.4C486.5 153.4 489.5 156.1 490 159.7L487.2 159.7C486.9 157.9 485.2 155.7 481.6 155.6C478.6 155.6 476 157.2 476 160.2C476 167.7 490.3 163.1 490.3 172.8C490.4 176.3 487.5 179.8 482 179.8Z" />
	<path id="Layer" class="shp0" d="M494.8 153.5C494.8 152.4 495.7 151.6 496.7 151.6C497.7 151.6 498.6 152.4 498.6 153.5C498.6 154.6 497.7 155.4 496.7 155.4C495.7 155.5 494.8 154.7 494.8 153.5ZM495.4 159.3L498 159.3L498 179.6L495.4 179.6L495.4 159.3Z" />
	<path id="Layer" class="shp0" d="M533.5 168C533.5 163.5 531.2 161.2 527.6 161.2C523.9 161.2 521.3 163.7 521.3 168.6L521.3 179.6L518.7 179.6L518.7 168C518.7 163.5 516.3 161.2 512.7 161.2C509 161.2 506.4 163.7 506.4 168.6L506.4 179.6L503.8 179.6L503.8 159.3L506.4 159.3L506.4 162.8C507.7 160.2 510.3 158.9 513.1 158.9C516.5 158.9 519.4 160.5 520.6 163.9C521.7 160.6 524.7 158.9 527.9 158.9C532.4 158.9 536 161.7 536 167.7L536 179.6L533.4 179.6L533.4 168L533.5 168Z" />
	<path id="Layer" fill-rule="evenodd" class="shp0" d="M552.5 159C558 159 562.2 163 562.2 169.4C562.2 175.8 558.1 179.9 552.5 179.9C548.5 179.9 545.6 177.7 544.4 175.1L544.4 189.1L541.8 189.1L541.8 159.2L544.4 159.2L544.4 163.7C545.6 161.2 548.4 159 552.5 159ZM552 161.3C547.9 161.3 544.5 164.4 544.5 169.5C544.5 174.6 547.9 177.7 552 177.7C556.3 177.7 559.5 174.6 559.5 169.5C559.5 164.2 556.2 161.3 552 161.3Z" />
	<path id="Layer" class="shp0" d="M566.9 152.1L569.5 152.1L569.5 179.6L566.9 179.6L566.9 152.1Z" />
	<path id="Layer" class="shp0" d="M589.5 159.3L592.2 159.3L580.2 189.1L577.5 189.1L581.4 179.4L573.1 159.2L576 159.2L582.9 176.5L589.5 159.3Z" />
	<path id="Layer" fill-rule="evenodd" class="shp0" d="M616.5 159C622.1 159 626.2 163 626.2 169.4C626.2 175.8 622.1 179.9 616.5 179.9C612.5 179.9 609.7 177.8 608.4 175.1L608.4 179.6L605.8 179.6L605.8 152.1L608.4 152.1L608.4 163.8C609.7 161.1 612.5 159 616.5 159ZM616 161.3C611.9 161.3 608.5 164.4 608.5 169.5C608.5 174.6 611.9 177.7 616 177.7C620.3 177.7 623.5 174.6 623.5 169.5C623.5 164.2 620.2 161.3 616 161.3Z" />
	<path id="Layer" fill-rule="evenodd" class="shp0" d="M639.7 179.9C633.9 179.9 629.7 175.9 629.7 169.5C629.7 163 633.8 159.1 639.7 159.1C645.6 159.1 649.3 163.3 649.3 168.5C649.3 169.3 649.3 169.8 649.2 170.5L632.4 170.5C632.6 175.3 635.9 177.7 639.7 177.7C643.2 177.7 645.5 175.9 646.2 173.2L648.9 173.2C648.1 177 644.8 179.9 639.7 179.9ZM632.4 168.3L646.7 168.3C646.8 163.6 643.4 161.2 639.6 161.2C635.9 161.2 632.7 163.6 632.4 168.3Z" />
	<path id="Layer" class="shp0" d="M654.8 161.5L652 161.5L652 159.3L654.8 159.3L654.8 154.2L657.4 154.2L657.4 159.3L663 159.3L663 161.5L657.4 161.5L657.4 174.1C657.4 176.6 658.3 177.4 660.6 177.4L663 177.4L663 179.6L660.2 179.6C656.7 179.6 654.8 178.2 654.8 174.1L654.8 161.5L654.8 161.5Z" />
	<path id="Layer" class="shp0" d="M668 161.5L665.2 161.5L665.2 159.3L668 159.3L668 154.2L670.6 154.2L670.6 159.3L676.2 159.3L676.2 161.5L670.6 161.5L670.6 174.1C670.6 176.6 671.5 177.4 673.8 177.4L676.2 177.4L676.2 179.6L673.4 179.6C669.9 179.6 668 178.2 668 174.1L668 161.5L668 161.5Z" />
	<path id="Layer" fill-rule="evenodd" class="shp0" d="M689.3 179.9C683.5 179.9 679.3 175.9 679.3 169.5C679.3 163 683.4 159.1 689.3 159.1C695.2 159.1 698.9 163.3 698.9 168.5C698.9 169.3 698.9 169.8 698.8 170.5L682 170.5C682.2 175.3 685.5 177.7 689.3 177.7C692.8 177.7 695.1 175.9 695.8 173.2L698.5 173.2C697.6 177 694.3 179.9 689.3 179.9ZM681.9 168.3L696.2 168.3C696.3 163.6 692.9 161.2 689.1 161.2C685.5 161.2 682.2 163.6 681.9 168.3Z" />
	<path id="Layer" class="shp0" d="M706.2 179.6L703.6 179.6L703.6 159.3L706.2 159.3L706.2 162.9C707.3 160.4 709.7 158.9 713.1 158.9L713.1 161.6L712.4 161.6C709 161.6 706.2 163.1 706.2 168.2L706.2 179.6L706.2 179.6Z" />
	<path id="Layer" class="shp0" d="M717.5 179.8C716.4 179.8 715.6 178.9 715.6 177.9C715.6 176.8 716.4 176 717.5 176C718.5 176 719.4 176.8 719.4 177.9C719.3 178.9 718.5 179.8 717.5 179.8Z" />
</svg>